<svg xmlns="http://www.w3.org/2000/svg" version="1.1" id="Layer_1" x="0" y="0" xml:space="preserve" width="71.412" height="50"><style type="text/css" id="style3"/><path fill="#fff" d="M51.56 40.065L42.58 25l8.98-15.11L55.903 25zm-20.017-1.473L20.242 27.475H38.23l8.994 15.027zm0-27.276l15.635-3.91-8.994 15.124H20.197zM54.513 0L34.079 5.29l-3.043 5.199-6.134-.046L10 25l14.901 14.512 6.135-.045 3.043 5.198L54.513 50 60 29.999l-3.072-4.995L59.998 20z" id="path995" stroke-width="1.238" fill-opacity="1"/><path id="path1076" d="M25.382 17.482c2.791-2.759 5.342-5.27 5.667-5.578l.592-.561 7.699-1.925c4.234-1.06 7.686-1.894 7.672-1.855-.015.038-2.015 3.414-4.446 7.502l-4.42 7.433h-8.92l-8.92.001z" fill="#000" fill-opacity="1" stroke="#fff" stroke-width=".265" stroke-linecap="round" stroke-linejoin="round" stroke-miterlimit="4" stroke-dasharray="none" stroke-opacity="1" paint-order="markers stroke fill"/><path id="path1078" d="M39.193 40.456l-7.616-1.914-5.58-5.48-5.58-5.48 8.861-.023c7.017-.018 8.883 0 8.965.088.111.119 8.691 14.442 8.763 14.629.024.06-.011.107-.077.102-.066-.004-3.547-.87-7.736-1.922z" fill="#000" fill-opacity="1" stroke="#fff" stroke-width=".265" stroke-linecap="round" stroke-linejoin="round" stroke-miterlimit="4" stroke-dasharray="none" stroke-opacity="1" paint-order="markers stroke fill"/><path id="path1080" d="M47.066 32.422C44.64 28.35 42.66 25 42.67 24.975c.05-.153 8.797-14.81 8.849-14.828.034-.011 1.024 3.325 2.198 7.414l2.135 7.434-2.135 7.414c-1.174 4.078-2.159 7.414-2.188 7.414-.029 0-2.037-3.33-4.463-7.401z" fill="#000" fill-opacity="1" stroke="#fff" stroke-width=".265" stroke-linecap="round" stroke-linejoin="round" stroke-miterlimit="4" stroke-dasharray="none" stroke-opacity="1" paint-order="markers stroke fill"/></svg>