<svg xmlns="http://www.w3.org/2000/svg" height="50" width="70" xml:space="preserve" y="0" x="0" id="Layer_1" version="1.1"><defs id="defs9"><linearGradient gradientTransform="translate(10) scale(1.04167)" gradientUnits="userSpaceOnUse" y2="5.175" x2="11.822" y1="47.826" x1="36.446" id="paint0_linear"><stop id="stop104" stop-color="#333"/><stop id="stop106" stop-color="#4D4D4D" offset="1"/></linearGradient><linearGradient gradientUnits="userSpaceOnUse" y2="26.992" x2="10.484" y1="33.996" x1="14.528" id="paint1_linear"><stop id="stop109" stop-color="#999"/><stop id="stop111" stop-color="#B3B3B3" offset="1"/></linearGradient><linearGradient gradientUnits="userSpaceOnUse" y2="16.978" x2="8.737" y1="30.034" x1="16.275" id="paint3_linear"><stop id="stop119" stop-color="#CCC"/><stop id="stop121" stop-color="#E6E6E6" offset="1"/></linearGradient><linearGradient gradientUnits="userSpaceOnUse" y2="29.045" x2="28.85" y1="39.955" x1="35.15" id="paint5_linear"><stop id="stop129" stop-color="#CCC"/><stop id="stop131" stop-color="#E6E6E6" offset="1"/></linearGradient><filter color-interpolation-filters="sRGB" filterUnits="userSpaceOnUse" height="25.875" width="18.95" y="15" x="3.025" id="filter0_dd"><feFlood id="feFlood29" result="BackgroundImageFix" flood-opacity="0"/><feColorMatrix id="feColorMatrix31" values="0 0 0 0 0 0 0 0 0 0 0 0 0 0 0 0 0 0 127 0" type="matrix" in="SourceAlpha"/><feOffset id="feOffset33" dy=".5"/><feGaussianBlur id="feGaussianBlur35" stdDeviation=".5"/><feColorMatrix id="feColorMatrix37" values="0 0 0 0 0 0 0 0 0 0 0 0 0 0 0 0 0 0 0.1 0" type="matrix"/><feBlend id="feBlend39" result="effect1_dropShadow" in2="BackgroundImageFix" mode="normal"/><feColorMatrix id="feColorMatrix41" values="0 0 0 0 0 0 0 0 0 0 0 0 0 0 0 0 0 0 127 0" type="matrix" in="SourceAlpha"/><feOffset id="feOffset43" dy="1"/><feGaussianBlur id="feGaussianBlur45" stdDeviation="1.5"/><feColorMatrix id="feColorMatrix47" values="0 0 0 0 0 0 0 0 0 0 0 0 0 0 0 0 0 0 0.2 0" type="matrix"/><feBlend id="feBlend49" result="effect2_dropShadow" in2="effect1_dropShadow" mode="normal"/><feBlend id="feBlend51" result="shape" in2="effect2_dropShadow" in="SourceGraphic" mode="normal"/></filter><filter color-interpolation-filters="sRGB" filterUnits="userSpaceOnUse" height="18.875" width="18.95" y="15" x="3.025" id="filter1_dd"><feFlood id="feFlood54" result="BackgroundImageFix" flood-opacity="0"/><feColorMatrix id="feColorMatrix56" values="0 0 0 0 0 0 0 0 0 0 0 0 0 0 0 0 0 0 127 0" type="matrix" in="SourceAlpha"/><feOffset id="feOffset58" dy=".5"/><feGaussianBlur id="feGaussianBlur60" stdDeviation=".5"/><feColorMatrix id="feColorMatrix62" values="0 0 0 0 0 0 0 0 0 0 0 0 0 0 0 0 0 0 0.1 0" type="matrix"/><feBlend id="feBlend64" result="effect1_dropShadow" in2="BackgroundImageFix" mode="normal"/><feColorMatrix id="feColorMatrix66" values="0 0 0 0 0 0 0 0 0 0 0 0 0 0 0 0 0 0 127 0" type="matrix" in="SourceAlpha"/><feOffset id="feOffset68" dy="1"/><feGaussianBlur id="feGaussianBlur70" stdDeviation="1.5"/><feColorMatrix id="feColorMatrix72" values="0 0 0 0 0 0 0 0 0 0 0 0 0 0 0 0 0 0 0.2 0" type="matrix"/><feBlend id="feBlend74" result="effect2_dropShadow" in2="effect1_dropShadow" mode="normal"/><feBlend id="feBlend76" result="shape" in2="effect2_dropShadow" in="SourceGraphic" mode="normal"/></filter><filter color-interpolation-filters="sRGB" filterUnits="userSpaceOnUse" height="11" width="24" y="30" x="20" id="filter2_dd"><feFlood id="feFlood79" result="BackgroundImageFix" flood-opacity="0"/><feColorMatrix id="feColorMatrix81" values="0 0 0 0 0 0 0 0 0 0 0 0 0 0 0 0 0 0 127 0" type="matrix" in="SourceAlpha"/><feOffset id="feOffset83" dy=".5"/><feGaussianBlur id="feGaussianBlur85" stdDeviation=".5"/><feColorMatrix id="feColorMatrix87" values="0 0 0 0 0 0 0 0 0 0 0 0 0 0 0 0 0 0 0.1 0" type="matrix"/><feBlend id="feBlend89" result="effect1_dropShadow" in2="BackgroundImageFix" mode="normal"/><feColorMatrix id="feColorMatrix91" values="0 0 0 0 0 0 0 0 0 0 0 0 0 0 0 0 0 0 127 0" type="matrix" in="SourceAlpha"/><feOffset id="feOffset93" dy="1"/><feGaussianBlur id="feGaussianBlur95" stdDeviation="1.5"/><feColorMatrix id="feColorMatrix97" values="0 0 0 0 0 0 0 0 0 0 0 0 0 0 0 0 0 0 0.2 0" type="matrix"/><feBlend id="feBlend99" result="effect2_dropShadow" in2="effect1_dropShadow" mode="normal"/><feBlend id="feBlend101" result="shape" in2="effect2_dropShadow" in="SourceGraphic" mode="normal"/></filter></defs><style id="style3" type="text/css"/><path d="M10 13.542h16.667V6.25H12.083A2.09 2.09 0 0010 8.333z" fill="#ff8537" id="path2" stroke-width="1.042" fill-opacity="1"/><path d="M43.333 6.25H26.667v7.292h16.666z" fill="#f66000" id="path4" stroke-width="1.042" fill-opacity="1"/><path d="M60 13.542H43.333V6.25h14.584A2.09 2.09 0 0160 8.333z" fill="#c84e00" id="path6" stroke-width="1.042" fill-opacity="1"/><path d="M57.917 43.75H12.083A2.09 2.09 0 0110 41.667V12.5h50v29.167a2.09 2.09 0 01-2.083 2.083z" fill="#0a5303" id="path8" stroke-width="1.042" fill-opacity="1"/><g filter="url(#filter0_dd)" id="g23" transform="translate(10) scale(1.04167)" fill="#d3f" fill-opacity="1"><path d="M15.2 24.3l-8.8 8.8c-.5.5-.5 1.2 0 1.6l1.8 1.8c.5.5 1.2.5 1.6 0l8.8-8.8c.5-.5.5-1.2 0-1.6l-1.8-1.8c-.4-.4-1.2-.4-1.6 0z" fill="#d3f" id="path10" fill-opacity="1"/><mask id="mask0" maskUnits="userSpaceOnUse" x="6" y="24" width="13" height="13"><path d="M15.2 24.3l-8.8 8.8c-.5.5-.5 1.2 0 1.6l1.8 1.8c.5.5 1.2.5 1.6 0l8.8-8.8c.5-.5.5-1.2 0-1.6l-1.8-1.8c-.4-.4-1.2-.4-1.6 0z" fill="url(#paint1_linear)" id="path12"/></mask><g mask="url(#mask0)" id="g19" fill="#d3f" fill-opacity="1"><g filter="url(#filter1_dd)" id="g17" fill="#d3f" fill-opacity="1"><path d="M9.8 17.3l8.8 8.8c.5.5.5 1.2 0 1.6l-1.8 1.8c-.5.5-1.2.5-1.6 0l-8.8-8.8c-.5-.5-.5-1.2 0-1.6l1.8-1.8c.4-.4 1.2-.4 1.6 0z" fill="#d3f" id="path15" fill-opacity="1"/></g></g><path d="M9.8 17.3l8.8 8.8c.5.5.5 1.2 0 1.6l-1.8 1.8c-.5.5-1.2.5-1.6 0l-8.8-8.8c-.5-.5-.5-1.2 0-1.6l1.8-1.8c.4-.4 1.2-.4 1.6 0z" fill="#d3f" id="path21" fill-opacity="1"/></g><g filter="url(#filter2_dd)" id="g27" transform="translate(10) scale(1.04167)" fill="#29e700" fill-opacity="1"><path d="M40 32H24c-.6 0-1 .4-1 1v3c0 .6.4 1 1 1h16c.6 0 1-.4 1-1v-3c0-.6-.4-1-1-1z" fill="#29e700" id="path25" fill-opacity="1"/></g></svg>