<svg xmlns="http://www.w3.org/2000/svg" height="50" width="70"><path fill="#4285f4" d="M35.51 20.454v9.682h13.73c-.604 3.114-2.413 5.75-5.126 7.523l8.28 6.296C57.216 39.59 60 33.182 60 25.568c0-1.772-.162-3.477-.464-5.113z"/><path fill="#34a853" d="M21.213 29.758l-1.867 1.401-6.61 5.046C16.934 44.364 25.537 50 35.51 50c6.887 0 12.662-2.227 16.883-6.045l-8.28-6.296c-2.272 1.5-5.171 2.41-8.603 2.41-6.633 0-12.268-4.387-14.286-10.296z"/><path fill="#fbbc05" d="M12.736 13.795A24.292 24.292 0 0010 25c0 4.045.997 7.84 2.736 11.204 0 .023 8.489-6.454 8.489-6.454-.51-1.5-.812-3.091-.812-4.75 0-1.66.301-3.25.812-4.75z"/><path fill="#ea4335" d="M35.51 9.955c3.757 0 7.097 1.272 9.764 3.727l7.305-7.16C48.149 2.478 42.398 0 35.51 0c-9.972 0-18.576 5.614-22.774 13.795l8.488 6.455c2.018-5.91 7.653-10.295 14.286-10.295z"/></svg>