<svg xmlns="http://www.w3.org/2000/svg" height="50" width="70" xml:space="preserve" y="0" x="0" id="Layer_1" version="1.1"><defs id="defs9"><linearGradient gradientTransform="matrix(.19583 0 0 -.19583 -1180.897 -1144.311)" y2="78.245" x2="153.991" y1="118.245" x1="128.991" gradientUnits="userSpaceOnUse" id="path2991_1_"><stop id="stop12" stop-color="#eff7fc" offset="0"/><stop id="stop14" stop-color="#fff" offset="1"/></linearGradient><linearGradient id="path2991_1_-5" gradientUnits="userSpaceOnUse" x1="128.991" y1="118.245" x2="153.991" y2="78.245" gradientTransform="matrix(.20833 0 0 -.20833 10 50.417)"><stop offset="0" stop-color="#eff7fc" id="stop12-9"/><stop offset="1" stop-color="#fff" id="stop14-9"/></linearGradient></defs><style id="style3" type="text/css"/><path id="path2995-1-0" class="st0" d="M59 25.488C59 39.03 48.23 50 34.932 50c-13.297 0-24.068-10.97-24.068-24.512 0-13.543 10.77-24.512 24.068-24.512C48.23.976 59 11.945 59 25.488z" fill="#0b0834" fill-opacity="1" stroke="none" stroke-width="1.462" stroke-miterlimit="4" stroke-dasharray="none" stroke-opacity="1"/><path d="M26.724 39.283c0 .202-.232.363-.524.363-.333.03-.565-.131-.565-.363 0-.202.232-.363.524-.363.303-.03.565.13.565.363zm-3.135-.454c-.07.202.13.434.433.494.262.101.565 0 .625-.202.06-.201-.13-.433-.433-.524-.262-.07-.555.03-.625.232zm4.455-.172c-.292.071-.494.263-.463.495.03.201.292.333.594.262.293-.07.494-.262.464-.464-.03-.192-.302-.323-.595-.293zM34.677 0C20.696 0 10 10.623 10 24.615c0 11.187 7.036 20.761 17.087 24.13 1.29.232 1.744-.565 1.744-1.22 0-.626-.03-4.076-.03-6.194 0 0-7.057 1.513-8.539-3.007 0 0-1.15-2.935-2.802-3.692 0 0-2.309-1.584.161-1.553 0 0 2.51.201 3.891 2.602 2.208 3.894 5.907 2.775 7.349 2.109.232-1.614.887-2.734 1.613-3.4-5.635-.625-11.32-1.442-11.32-11.147 0-2.774.765-4.167 2.378-5.942-.262-.656-1.119-3.36.262-6.85 2.107-.656 6.956 2.724 6.956 2.724a23.668 23.668 0 016.33-.858c2.148 0 4.315.293 6.331.858 0 0 4.85-3.39 6.956-2.724 1.381 3.5.524 6.194.262 6.85 1.613 1.786 2.6 3.178 2.6 5.942 0 9.735-5.937 10.512-11.572 11.147.928.797 1.714 2.31 1.714 4.681 0 3.4-.03 7.606-.03 8.434 0 .655.464 1.452 1.744 1.22C53.165 45.376 60 35.802 60 24.615 60 10.623 48.66 0 34.678 0zM19.798 34.794c-.13.1-.1.333.071.524.161.162.393.232.524.101.131-.1.101-.333-.07-.524-.162-.162-.394-.233-.525-.101zm-1.088-.818c-.07.132.03.293.232.394.16.1.362.07.433-.07.07-.132-.03-.293-.232-.394-.201-.06-.363-.03-.433.07zm3.266 3.592c-.161.131-.101.434.13.625.233.232.525.263.656.101.131-.131.07-.434-.131-.625-.222-.232-.524-.263-.655-.101zm-1.15-1.483c-.16.1-.16.363 0 .595.162.232.434.333.565.232.161-.131.161-.393 0-.625-.141-.232-.403-.333-.564-.202z" id="path2" fill="#fff" fill-opacity="1" stroke-width=".101"/></svg>