<svg xmlns="http://www.w3.org/2000/svg" height="50" width="71.412" xml:space="preserve" y="0" x="0" id="Layer_1" version="1.1"><style id="style3" type="text/css"/><path d="M12.57 32.702l.14-15.897 9.782.083-.277 31.794-9.782-.083zm16.237.137l.138-15.896 9.575.08-.018 2.154c-.01 1.185.054 2.154.144 2.155.09 0 .318-.251.508-.56.602-.981 2.496-2.649 3.727-3.282 2.38-1.225 5.354-1.528 8.638-.88 5.004.988 7.634 4.275 8.348 10.435.115.99.163 6.093.113 11.847L59.893 49l-9.753-.082v-9.693c0-10.731-.048-11.203-1.353-12.79-.921-1.12-1.99-1.537-3.986-1.557-2.81-.028-4.563 1.095-5.464 3.5-.362.967-.41 1.914-.547 10.751l-.149 9.692-9.972-.085zM16.506 12.092c-1.927-.373-3.88-2.15-4.364-3.967-.126-.476-.178-1.439-.115-2.14C12.285 3.092 14.719.976 17.76 1c3.692.031 6.415 3.638 5.36 7.102a5.786 5.786 0 01-6.614 3.99z" fill="#fff" paint-order="stroke fill markers" id="path855" stroke-width="1.041"/></svg>