<svg xmlns="http://www.w3.org/2000/svg" version="1.1" id="Layer_1" x="0" y="0" xml:space="preserve" width="71.412" height="50"><defs id="defs9"><linearGradient id="path2991_1_" gradientUnits="userSpaceOnUse" x1="128.991" y1="118.245" x2="153.991" y2="78.245" gradientTransform="matrix(.19583 0 0 -.19583 -1180.897 -1144.311)"><stop offset="0" stop-color="#eff7fc" id="stop12"/><stop offset="1" stop-color="#fff" id="stop14"/></linearGradient><linearGradient gradientTransform="matrix(.20833 0 0 -.20833 10 50.417)" y2="78.245" x2="153.991" y1="118.245" x1="128.991" gradientUnits="userSpaceOnUse" id="path2991_1_-5"><stop id="stop12-9" stop-color="#eff7fc" offset="0"/><stop id="stop14-9" stop-color="#fff" offset="1"/></linearGradient><linearGradient gradientTransform="translate(157.785 -143.212) scale(.1446)" id="paint0_linear_5497_105457" x1="364.5" y1="277.5" x2="285.177" y2="-61.141" gradientUnits="userSpaceOnUse"><stop stop-color="#E2DBFF" id="stop912"/><stop offset="1" stop-color="#6D4AFF" id="stop914"/></linearGradient><linearGradient gradientTransform="translate(157.785 -143.212) scale(.1446)" id="paint1_linear_5497_105457" x1="556" y1="603.5" x2="285.302" y2="25.231" gradientUnits="userSpaceOnUse"><stop offset=".271" stop-color="#E2DBFF" id="stop917"/><stop offset="1" stop-color="#6D4AFF" id="stop919"/></linearGradient><linearGradient gradientUnits="userSpaceOnUse" y2="-61.141" x2="285.177" y1="277.5" x1="364.5" id="paint0_linear_5497_105457-7" gradientTransform="translate(-12.136 -24.909) scale(.17552)"><stop id="stop912-6" stop-color="#E2DBFF"/><stop id="stop914-5" stop-color="#6D4AFF" offset="1"/></linearGradient><linearGradient gradientUnits="userSpaceOnUse" y2="25.231" x2="285.302" y1="603.5" x1="556" id="paint1_linear_5497_105457-6" gradientTransform="translate(-12.136 -24.909) scale(.17552)"><stop id="stop917-7" stop-color="#E2DBFF" offset=".271"/><stop id="stop919-2" stop-color="#6D4AFF" offset="1"/></linearGradient><linearGradient gradientTransform="matrix(.17904 0 0 .17923 -13.262 -25.276)" id="paint1_linear_5497_105457-6-2" x1="556" y1="603.5" x2="285.302" y2="25.231" gradientUnits="userSpaceOnUse"><stop offset=".271" stop-color="#E2DBFF" id="stop917-7-2"/><stop offset="1" stop-color="#6D4AFF" id="stop919-2-4"/></linearGradient><linearGradient gradientTransform="matrix(.17904 0 0 .17923 -13.262 -25.276)" id="paint0_linear_5497_105457-7-5" x1="364.5" y1="277.5" x2="285.177" y2="-61.141" gradientUnits="userSpaceOnUse"><stop stop-color="#E2DBFF" id="stop912-6-8"/><stop offset="1" stop-color="#6D4AFF" id="stop914-5-0"/></linearGradient></defs><style type="text/css" id="style3"/><path id="path906" fill="#a770ff" d="M11 6.15c0-.972 1.135-1.504 1.884-.883l19.811 16.42a5.18 5.18 0 006.61 0l19.811-16.42c.75-.62 1.884-.09 1.884.883v33.688A5.167 5.167 0 0155.828 45H16.172A5.167 5.167 0 0111 39.838z" fill-opacity="1" stroke-width=".144"/><path id="path908" fill="#8352d5" d="M42.75 18.83l.003.002-9.977 8.796a4.605 4.605 0 01-5.984.088L11 14.61V6.15c0-.972 1.135-1.504 1.884-.883l19.812 16.419a5.18 5.18 0 006.609 0z" clip-rule="evenodd" fill-rule="evenodd" fill-opacity="1" stroke-width=".144"/><path id="path910" fill="#8352d5" d="M50.368 12.518V45h5.46A5.167 5.167 0 0061 39.838V6.15c0-.972-1.135-1.504-1.884-.883z" clip-rule="evenodd" fill-rule="evenodd" fill-opacity="1" stroke-width=".144"/></svg>