<svg xmlns="http://www.w3.org/2000/svg" viewBox="0 0 1000 1000"><path d="M430.4 12.34c-73.6 11.31-139.15 36.42-200.67 77.43C-5.83 245.98-61.22 569.5 108.6 795.85c78.58 104.46 193.19 172.69 322.95 191.66 28.37 4.21 109.06 4.21 138.38 0 27.02-3.83 73.41-15.53 98.32-24.72 30.67-11.31 74.56-33.73 102.35-52.32 120.55-80.69 195.87-202.4 216.96-350.17 3.26-22.62 3.26-98.13 0-120.75-18.21-127.07-75.9-234.21-170-314.9-40.63-34.88-98.9-69.19-149.5-87.78-24.73-9.01-70.72-20.51-98.13-24.53-27.41-4.02-113.85-4.02-139.53 0zm109.24 58.27c128.6 11.88 245.71 81.84 317.58 189.75 15.52 23.38 39.1 70.15 47.53 94.87 38.72 111.74 31.43 232.1-20.13 335.98-64.02 128.61-180.35 213.51-322.95 235.55-32.78 4.98-96.21 4.6-128.41-.96-88.93-15.14-164.06-52.13-227.31-112.12C86.56 700.6 41.51 526.38 91.35 369.79 152.87 176.02 338.4 52.21 539.64 70.61z" fill="#202020" stroke-width=".1" stroke="#439cef"/><path d="M540.22 298.68c-8.24 4.41-12.46 9.78-15.14 19.55-4.22 15.72-3.26 16.67 66.51 86.06l64.2 64.01-198.37.96c-197.41.96-198.37.96-203.74 4.98-18.78 13.99-18.78 37.37 0 51.36 5.37 4.02 5.94 4.02 204.12 4.6l198.56.38-63.44 63.82c-35.07 34.88-64.59 66.12-65.55 69-6.9 18.21 2.49 36.61 21.08 41.59 16.1 4.41 14.18 5.94 114.81-94.68 50.98-51.17 93.91-95.06 95.26-97.37 3.26-6.13 3.07-17.44-.58-26.07-3.45-8.43-171.16-177.67-184.57-186.49-10.34-6.68-22.42-7.25-33.15-1.7z"/><path d="M534.75 297.21c-8.24 4.41-12.46 9.78-15.14 19.55-4.22 15.72-3.26 16.67 66.51 86.06l64.2 64.01-198.37.96c-197.41.96-198.37.96-203.74 4.98-18.78 13.99-18.78 37.37 0 51.36 5.37 4.02 5.94 4.02 204.12 4.6l198.56.38-63.44 63.82c-35.07 34.88-64.59 66.12-65.55 69-6.9 18.21 2.49 36.61 21.08 41.59 16.1 4.41 14.18 5.94 114.81-94.68 50.98-51.17 93.91-95.06 95.26-97.37 3.26-6.13 3.07-17.44-.58-26.07-3.45-8.43-171.16-177.67-184.57-186.49-10.34-6.68-22.42-7.25-33.15-1.7z" fill="#fff"/><path d="M443.245 926.314c-37.369-4.789-90.504-20.763-126.63-38.07-183.936-88.115-281-295.533-231.053-493.741 19.248-76.385 62.634-150.98 119.253-205.038 63.886-60.995 138.43-98.399 227.665-114.234 31.09-5.516 98.408-6.068 129.649-1.063 91.324 14.633 171.016 54.406 235.721 117.647 42.71 41.743 65.639 74.847 94.114 135.88 12.267 26.293 22.41 58.955 28.77 92.63 25.878 137.053-16.767 278.546-114.368 379.464-36.301 37.534-70.806 62.682-117.396 85.561-41.493 20.376-83.268 33.477-128.475 40.29-20.422 3.079-95.139 3.508-117.25.674zm127.599-225.578c9.633-6.843 177.654-173.64 185.278-183.928 6.008-8.108 7.063-19.062 2.806-29.132C754.247 476.6 588.578 308.683 572.8 299.02c-2.69-1.647-9.125-3.976-14.3-5.174-16.611-3.846-30.987 2.737-37.555 17.197-4.21 9.268-4.355 16.018-.51 23.622 1.633 3.229 31.115 34.14 65.515 68.694l62.546 62.823-101.741.202c-55.958.11-145.223.73-198.366 1.375-93.676 1.139-96.783 1.29-101.802 4.95-6.705 4.892-13.438 18.166-13.4 26.42.035 7.6 6.283 19.394 12.81 24.184 2.522 1.85 9.031 4.198 14.465 5.216 6.105 1.145 63.643 1.852 150.57 1.852 77.38 0 161.88.545 187.776 1.212l47.086 1.211-59.475 59.941c-32.712 32.967-61.192 62.756-63.29 66.197-4.5 7.382-5.108 21.404-1.25 28.818 5.87 11.282 18.751 18.473 33.374 18.63 5.563.06 9.62-1.412 15.59-5.654z" fill="#202020" stroke="#202020" stroke-width="70" stroke-linecap="round" stroke-linejoin="round" paint-order="markers stroke fill"/><path d="M517.213 306.828c-7.04 4.186-10.646 9.283-12.936 18.557-3.606 14.923-2.786 15.824 56.828 81.692l54.855 60.762c-509.147 13.105-313.084 58.695.487 59.118l-54.206 60.581c-29.964 33.11-55.187 62.764-56.008 65.498-5.895 17.286 2.128 34.752 18.012 39.48 13.756 4.185 12.116 5.638 98.097-89.875 43.56-48.573 80.24-90.235 81.393-92.428 2.786-5.82 2.624-16.555-.495-24.747-2.948-8.002-146.245-168.652-157.703-177.025-8.835-6.34-19.156-6.882-28.324-1.613z" fill="#fff" stroke="#fff" stroke-width="9.006"/></svg>