<svg xmlns="http://www.w3.org/2000/svg" version="1.1" id="Layer_1" x="0" y="0" xml:space="preserve" width="71.412" height="50"><defs id="defs9"><linearGradient id="path2991_1_" gradientUnits="userSpaceOnUse" x1="128.991" y1="118.245" x2="153.991" y2="78.245" gradientTransform="matrix(.19583 0 0 -.19583 -1180.897 -1144.311)"><stop offset="0" stop-color="#eff7fc" id="stop12"/><stop offset="1" stop-color="#fff" id="stop14"/></linearGradient><linearGradient gradientTransform="matrix(.20833 0 0 -.20833 10 50.417)" y2="78.245" x2="153.991" y1="118.245" x1="128.991" gradientUnits="userSpaceOnUse" id="path2991_1_-5"><stop id="stop12-9" stop-color="#eff7fc" offset="0"/><stop id="stop14-9" stop-color="#fff" offset="1"/></linearGradient><linearGradient gradientTransform="matrix(.20833 0 0 -.20833 -815.363 -910.171)" y2="78.245" x2="153.991" y1="118.245" x1="128.991" gradientUnits="userSpaceOnUse" id="path2991_1_-4"><stop id="stop12-3" stop-color="#eff7fc" offset="0"/><stop id="stop14-0" stop-color="#fff" offset="1"/></linearGradient><linearGradient gradientTransform="matrix(1.25 0 0 -1.25 71.096 -284.13)" y2="511.512" x2="-693.305" y1="534.845" x1="-683.305" gradientUnits="userSpaceOnUse" id="path2995-1-0_1_"><stop id="stop4" stop-color="#37aee2" offset="0"/><stop id="stop6" stop-color="#1e96c8" offset="1"/></linearGradient></defs><style type="text/css" id="style3"/><style id="style879"/><path d="M8.177 21.714S33.005 11.525 41.615 7.937C44.916 6.502 56.11 1.91 56.11 1.91s5.166-2.01 4.736 2.87c-.144 2.01-1.292 9.041-2.44 16.647-1.722 10.764-3.588 22.532-3.588 22.532s-.287 3.3-2.726 3.874c-2.44.574-6.459-2.009-7.176-2.583-.574-.43-10.763-6.888-14.495-10.046-1.004-.86-2.152-2.583.144-4.592 5.166-4.736 11.337-10.62 15.068-14.351 1.723-1.722 3.445-5.74-3.73-.861-10.19 7.032-20.236 13.633-20.236 13.633s-2.296 1.436-6.601.144c-4.306-1.292-9.329-3.014-9.329-3.014s-3.444-2.152 2.44-4.449z" fill="#629eff" id="path877" fill-opacity="1" stroke-width=".199"/></svg>