<svg xmlns="http://www.w3.org/2000/svg" height="50" width="70"><path d="M500 10h-1.2C228.7 10.7 10 229.8 10 500c0 270.1 218.7 489.3 488.8 489.9h1.2c270.6 0 490-219.4 490-490C990 229.4 770.6 10 500 10zm19.6 293.2c52-1.4 102.5-8.3 151.2-20.1 14.7 57.8 23.8 124.3 25.2 197.3H519.6zm0-39.2V52.3c52.8 14.6 106.4 85.1 140.5 193.1-45.3 10.9-92.2 17.3-140.5 18.6zM480.4 51.9V264c-48.7-1.4-96-7.8-141.6-18.9 34.4-108.7 88.4-179.4 141.6-193.2zm0 251.3v177.2H302.8c1.4-73.1 10.6-139.7 25.2-197.5 49.1 12 100 18.9 152.4 20.3zM263.3 480.4H49.7C54 379.6 91.5 287.3 151.6 214.2c43.7 24 90 43.7 138.4 58.4-15.7 62.5-25.2 133-26.7 207.8zm0 39.2c1.5 74.8 10.9 145.2 26.8 207.8-48.4 14.7-94.8 34.4-138.4 58.4-60.2-73.1-97.7-165.4-102-266.2zm39.5 0h177.6v177C428 697.9 377.1 705 328 717c-14.7-57.8-23.8-124.4-25.2-197.4zm177.6 216.1v212.4c-53.2-13.9-107.3-84.7-141.7-193.5 45.7-11 93-17.5 141.7-18.9zm39.2 212v-212c48.3 1.4 95.2 7.8 140.5 18.7-34.1 108.1-87.6 178.7-140.5 193.3zm0-251.1v-177H696c-1.5 72.9-10.6 139.4-25.2 197.1-48.7-11.9-99.2-18.8-151.2-20.1zm215.8-177h214.9c-4.3 100.8-41.8 193-101.9 266.2-44-24.2-90.7-44-139.6-58.8 15.7-62.5 25.2-132.8 26.6-207.4zm0-39.2c-1.4-74.7-10.9-145.1-26.8-207.6 48.9-14.8 95.6-34.6 139.5-58.8 60.2 73.1 97.7 165.5 102.1 266.3zm85.8-296.3c-39 20.8-80.2 37.9-123.1 50.9C675.2 161.3 643 101.2 605 61.7c83.4 20 157.9 63.2 216.2 122.4zM393.5 62c-37.9 39.4-69.9 99.3-92.7 172.7-42.6-13-83.4-30-122-50.6C236.7 125.2 310.6 82.2 393.5 62zM178.6 815.7c38.7-20.6 79.5-37.6 122.1-50.6 22.9 73.4 54.9 133.4 92.8 172.8-82.9-20.1-156.9-63.2-214.9-122.2zM605 938.3c38.1-39.5 70.3-99.7 93.2-173.6 43 13.1 84.2 30.2 123.2 51-58.4 59.4-133 102.6-216.4 122.6z" transform="matrix(.04902 0 0 .04901 10.498 .498)" fill="#439cef" stroke="#439cef" stroke-width="40.318"/></svg>