<svg xmlns="http://www.w3.org/2000/svg" version="1.1" id="Layer_1" x="0" y="0" xml:space="preserve" width="71.412" height="50"><style type="text/css" id="style3"/><path fill="#c61f1f" id="path7" d="M69.942 7.824a8.947 8.947 0 00-6.294-6.295C58.059 0 35.706 0 35.706 0S13.353 0 7.765 1.47c-3 .824-5.47 3.295-6.294 6.354C0 13.412 0 25 0 25s0 11.647 1.47 17.177a8.947 8.947 0 006.295 6.294c5.647 1.53 27.941 1.53 27.941 1.53s22.353 0 27.942-1.471a8.947 8.947 0 006.294-6.294c1.47-5.589 1.47-17.177 1.47-17.177s.06-11.647-1.47-17.235z" stroke-width=".588" fill-opacity="1"/><path d="M47.177 25L28.588 14.294v21.412z" fill="#fff" id="polygon9" stroke-width=".588"/></svg>